<svg width="538" height="800" viewBox="0 0 538 800" fill="none" xmlns="http://www.w3.org/2000/svg">
<rect x="125.115" y="103.658" width="106" height="356" transform="rotate(12.912 125.115 103.658)" fill="#08B2E3"/>
<rect x="378.549" y="150" width="106" height="356" transform="rotate(12.912 378.549 150)" fill="#08B2E3"/>
<rect x="137" y="345.388" width="106" height="356" transform="rotate(-75 137 345.388)" fill="#08B2E3"/>
<path d="M517.638 277.608C517.638 290.258 507.265 338.328 486.519 421.818C466.279 505.308 453.123 553.884 447.051 567.546C436.931 590.822 427.064 602.46 417.45 602.46C408.342 602.46 389.114 600.436 359.766 596.388C327.888 591.834 310.178 588.039 306.636 585.003C292.468 545.029 285.384 520.994 285.384 512.898C285.384 502.778 287.914 487.598 292.974 467.358C298.54 447.118 301.323 432.191 301.323 422.577C292.721 418.529 272.481 414.481 240.603 410.433C228.459 444.841 209.737 496.706 184.437 566.028C174.823 565.016 151.041 558.691 113.091 547.053C73.623 534.909 52.624 526.813 50.094 522.765C48.07 518.211 44.022 506.826 37.95 488.61C32.384 470.394 29.601 458.756 29.601 453.696C29.601 447.624 31.119 439.275 34.155 428.649C37.697 415.493 39.721 406.891 40.227 402.843C44.781 372.989 52.118 334.28 62.238 286.716C74.888 226.502 82.984 188.046 86.526 171.348C88.55 158.192 90.827 145.036 93.357 131.88C96.899 116.7 102.212 104.556 109.296 95.448L116.127 92.412C112.079 91.906 122.958 91.653 148.764 91.653C191.774 91.653 218.845 93.93 229.977 98.484C235.037 100.508 244.651 111.893 258.819 132.639C263.373 138.711 267.674 144.53 271.722 150.096C275.77 155.156 277.794 161.987 277.794 170.589C277.794 178.685 275.517 190.576 270.963 206.262C265.397 226.502 262.361 238.393 261.855 241.935C281.083 243.453 301.07 245.983 321.816 249.525C324.852 242.947 329.153 220.683 334.719 182.733C339.779 148.325 344.08 129.856 347.622 127.326C351.164 124.29 359.26 122.772 371.91 122.772C382.536 122.772 397.969 124.29 418.209 127.326C438.955 129.856 454.388 131.121 464.508 131.121C475.134 131.121 482.471 132.892 486.519 136.434C491.073 139.47 497.398 161.987 505.494 203.985C513.59 242.947 517.638 267.488 517.638 277.608ZM497.145 285.957C497.145 278.873 495.121 264.199 491.073 241.935C487.025 219.165 483.989 205.756 481.965 201.708L425.799 481.779C426.305 486.839 424.534 493.923 420.486 503.031C416.944 512.139 415.173 517.958 415.173 520.488C415.173 525.548 416.438 532.632 418.968 541.74C422.51 553.378 424.534 560.462 425.04 562.992C436.172 536.174 446.545 500.754 456.159 456.732C463.243 420.806 470.58 384.627 478.17 348.195C484.242 327.449 490.567 306.703 497.145 285.957ZM254.265 167.553C249.711 159.457 243.386 149.843 235.29 138.711C230.23 150.349 225.423 165.529 220.869 184.251C214.291 211.575 210.749 227.008 210.243 230.55C215.809 232.068 224.411 234.092 236.049 236.622C241.615 220.43 247.687 197.407 254.265 167.553ZM462.231 158.445C440.979 155.409 409.101 152.12 366.597 148.578C362.043 176.408 355.212 218.153 346.104 273.813L343.068 276.849C298.54 269.259 264.132 265.464 239.844 265.464C204.93 265.464 187.473 260.91 187.473 251.802C187.473 239.658 191.015 218.406 198.099 188.046C203.159 165.782 207.966 143.771 212.52 122.013C180.136 119.483 157.872 118.218 145.728 118.218C140.162 118.218 132.825 119.483 123.717 122.013C112.585 154.397 98.67 211.069 81.972 292.029C64.262 376.531 55.407 432.191 55.407 459.009C113.597 474.695 141.174 482.538 138.138 482.538C143.198 466.346 150.029 442.058 158.631 409.674C169.257 358.568 178.112 333.015 185.196 333.015C248.446 333.015 299.299 338.075 337.755 348.195C330.671 385.133 321.31 441.046 309.672 515.934C345.092 520.994 366.091 523.524 372.669 523.524C388.355 523.524 397.463 520.488 399.993 514.416C403.029 508.344 406.318 493.67 409.86 470.394C412.39 454.202 414.667 438.01 416.691 421.818C418.209 413.722 424.281 390.193 434.907 351.231C453.123 283.427 462.231 219.165 462.231 158.445ZM220.869 401.325C220.869 396.265 212.52 383.868 195.822 364.134C191.268 373.242 184.184 393.229 174.57 424.095C164.45 456.479 159.39 476.213 159.39 483.297C159.39 490.381 161.667 498.73 166.221 508.344C169.763 515.934 173.558 523.777 177.606 531.873C206.448 444.841 220.869 401.325 220.869 401.325Z" fill="#F2CD5D"/>
<path d="M486.519 421.818L468.08 417.236L468.067 417.289L468.054 417.342L486.519 421.818ZM447.051 567.546L429.689 559.829L429.657 559.9L429.627 559.97L447.051 567.546ZM359.766 596.388L357.079 615.197L357.124 615.204L357.17 615.21L359.766 596.388ZM306.636 585.003L288.728 591.35L290.421 596.129L294.271 599.429L306.636 585.003ZM292.974 467.358L274.654 462.32L274.595 462.534L274.541 462.75L292.974 467.358ZM301.323 422.577H320.323V410.519L309.413 405.385L301.323 422.577ZM240.603 410.433L242.996 391.584L227.788 389.653L222.686 404.109L240.603 410.433ZM184.437 566.028L182.448 584.924L197.2 586.476L202.285 572.542L184.437 566.028ZM113.091 547.053L107.503 565.213L107.512 565.215L107.52 565.218L113.091 547.053ZM50.094 522.765L32.7316 530.482L33.2741 531.702L33.982 532.835L50.094 522.765ZM37.95 488.61L19.7793 494.162L19.8493 494.391L19.925 494.618L37.95 488.61ZM34.155 428.649L52.424 433.869L52.4639 433.729L52.5017 433.588L34.155 428.649ZM40.227 402.843L21.4443 399.978L21.4056 400.232L21.3737 400.486L40.227 402.843ZM62.238 286.716L80.822 290.67L80.8271 290.646L80.8321 290.622L62.238 286.716ZM86.526 171.348L105.112 175.291L105.224 174.767L105.305 174.237L86.526 171.348ZM93.357 131.88L74.854 127.563L74.7693 127.926L74.6989 128.292L93.357 131.88ZM109.296 95.448L101.579 78.0856L97.2243 80.0212L94.2983 83.7831L109.296 95.448ZM116.127 92.412L123.844 109.774L186.265 82.0313L118.484 73.5587L116.127 92.412ZM229.977 98.484L222.783 116.069L222.852 116.097L222.921 116.125L229.977 98.484ZM258.819 132.639L243.129 143.354L243.366 143.702L243.619 144.039L258.819 132.639ZM271.722 150.096L256.356 161.271L256.613 161.624L256.886 161.965L271.722 150.096ZM270.963 206.262L252.716 200.965L252.679 201.094L252.643 201.224L270.963 206.262ZM261.855 241.935L243.046 239.248L240.184 259.283L260.36 260.876L261.855 241.935ZM321.816 249.525L318.618 268.254L332.967 270.704L339.067 257.487L321.816 249.525ZM334.719 182.733L315.921 179.969L315.92 179.976L334.719 182.733ZM347.622 127.326L358.666 142.787L359.349 142.299L359.987 141.752L347.622 127.326ZM418.209 127.326L415.391 146.116L415.649 146.155L415.909 146.186L418.209 127.326ZM486.519 136.434L474.007 150.733L474.944 151.553L475.98 152.243L486.519 136.434ZM505.494 203.985L486.837 207.581L486.863 207.716L486.891 207.85L505.494 203.985ZM497.145 285.957L515.256 291.7L516.145 288.897V285.957H497.145ZM491.073 241.935L472.366 245.261L472.373 245.297L472.379 245.334L491.073 241.935ZM481.965 201.708L498.959 193.211L474.215 143.723L463.336 197.972L481.965 201.708ZM425.799 481.779L407.17 478.043L406.61 480.836L406.893 483.67L425.799 481.779ZM420.486 503.031L403.124 495.314L402.941 495.725L402.778 496.145L420.486 503.031ZM418.968 541.74L400.661 546.825L400.723 547.049L400.791 547.272L418.968 541.74ZM425.04 562.992L406.409 566.718L418.653 627.939L442.588 570.276L425.04 562.992ZM456.159 456.732L474.721 460.786L474.763 460.597L474.8 460.408L456.159 456.732ZM478.17 348.195L459.935 342.858L459.723 343.582L459.569 344.32L478.17 348.195ZM254.265 167.553L272.82 171.641L274.38 164.559L270.825 158.238L254.265 167.553ZM235.29 138.711L250.656 127.536L231.114 100.665L217.866 131.135L235.29 138.711ZM220.869 184.251L202.407 179.76L202.402 179.782L202.397 179.804L220.869 184.251ZM210.243 230.55L191.434 227.863L189.062 244.467L205.244 248.881L210.243 230.55ZM236.049 236.622L232.013 255.188L248.524 258.778L254.017 242.798L236.049 236.622ZM462.231 158.445H481.231V141.966L464.918 139.636L462.231 158.445ZM366.597 148.578L368.175 129.644L350.681 128.186L347.846 145.51L366.597 148.578ZM346.104 273.813L359.539 287.248L363.866 282.921L364.855 276.881L346.104 273.813ZM343.068 276.849L339.875 295.579L349.558 297.229L356.503 290.284L343.068 276.849ZM198.099 188.046L216.602 192.363L216.614 192.31L216.627 192.257L198.099 188.046ZM212.52 122.013L231.117 125.905L235.544 104.754L214 103.071L212.52 122.013ZM123.717 122.013L118.632 103.706L108.999 106.382L105.749 115.836L123.717 122.013ZM81.972 292.029L100.568 295.926L100.574 295.897L100.58 295.867L81.972 292.029ZM55.407 459.009H36.407V473.565L50.4618 477.354L55.407 459.009ZM138.138 482.538L120.003 476.871L112.294 501.538H138.138V482.538ZM158.631 409.674L176.994 414.552L177.127 414.05L177.233 413.542L158.631 409.674ZM337.755 348.195L356.415 351.774L359.759 334.339L342.59 329.821L337.755 348.195ZM309.672 515.934L290.897 513.016L287.944 532.023L306.985 534.743L309.672 515.934ZM399.993 514.416L382.999 505.919L382.706 506.504L382.455 507.108L399.993 514.416ZM409.86 470.394L391.088 467.461L391.082 467.498L391.076 467.536L409.86 470.394ZM416.691 421.818L398.016 418.316L397.91 418.886L397.838 419.461L416.691 421.818ZM434.907 351.231L453.238 356.23L453.247 356.195L453.256 356.161L434.907 351.231ZM220.869 401.325L238.904 407.302L239.869 404.391V401.325H220.869ZM195.822 364.134L210.326 351.861L191.714 329.865L178.828 355.637L195.822 364.134ZM174.57 424.095L192.705 429.762L192.708 429.754L192.71 429.745L174.57 424.095ZM166.221 508.344L183.438 500.309L183.415 500.26L183.392 500.21L166.221 508.344ZM177.606 531.873L160.612 540.37L181.176 581.499L195.641 537.85L177.606 531.873ZM498.638 277.608C498.638 278.986 498.264 282.932 496.964 290.537C495.733 297.747 493.851 307.254 491.286 319.14C486.16 342.893 478.435 375.564 468.08 417.236L504.958 426.4C515.349 384.582 523.183 351.473 528.431 327.156C531.052 315.007 533.06 304.907 534.422 296.936C535.716 289.362 536.638 282.555 536.638 277.608H498.638ZM468.054 417.342C457.95 459.019 449.647 491.85 443.133 515.901C436.457 540.548 432.015 554.595 429.689 559.829L464.413 575.263C468.159 566.835 473.331 549.763 479.811 525.834C486.453 501.309 494.848 468.107 504.984 426.294L468.054 417.342ZM429.627 559.97C424.886 570.873 420.767 577.672 417.568 581.444C414.144 585.483 414.086 583.46 417.45 583.46V621.46C430.428 621.46 440.11 613.618 446.553 606.019C453.222 598.153 459.096 587.495 464.475 575.122L429.627 559.97ZM417.45 583.46C409.889 583.46 392.006 581.655 362.362 577.566L357.17 615.21C386.222 619.217 406.795 621.46 417.45 621.46V583.46ZM362.453 577.579C346.671 575.324 334.776 573.309 326.556 571.548C322.418 570.661 319.565 569.913 317.763 569.334C315.069 568.468 316.682 568.59 319.001 570.577L294.271 599.429C298.361 602.934 303.516 604.669 306.135 605.511C309.646 606.64 313.877 607.694 318.594 608.704C328.084 610.738 340.983 612.898 357.079 615.197L362.453 577.579ZM324.544 578.656C317.508 558.804 312.324 543.167 308.922 531.625C307.218 525.845 306.022 521.293 305.267 517.868C304.439 514.116 304.384 512.763 304.384 512.898H266.384C266.384 517.081 267.214 521.768 268.158 526.049C269.174 530.656 270.634 536.13 272.472 542.368C276.154 554.86 281.596 571.228 288.728 591.35L324.544 578.656ZM304.384 512.898C304.384 505.231 306.414 491.938 311.407 471.966L274.541 462.75C269.414 483.258 266.384 500.325 266.384 512.898H304.384ZM311.294 472.396C316.908 451.98 320.323 434.936 320.323 422.577H282.323C282.323 429.446 280.172 442.256 274.654 462.32L311.294 472.396ZM309.413 405.385C302.875 402.309 293.713 399.933 283.418 397.874C272.685 395.727 259.166 393.638 242.996 391.584L238.21 429.282C253.918 431.276 266.458 433.235 275.965 435.136C285.91 437.125 291.169 438.797 293.233 439.769L309.413 405.385ZM222.686 404.109C210.577 438.418 191.884 490.205 166.589 559.514L202.285 572.542C227.59 503.207 246.341 451.264 258.52 416.757L222.686 404.109ZM186.426 547.132C179.061 546.357 157.306 540.739 118.662 528.888L107.52 565.218C144.776 576.643 170.585 583.675 182.448 584.924L186.426 547.132ZM118.679 528.893C99.0808 522.863 84.4581 517.955 74.5757 514.145C69.5908 512.223 66.2229 510.736 64.1687 509.676C63.1298 509.14 62.7935 508.899 62.887 508.966C62.9478 509.009 63.3031 509.262 63.8067 509.736C64.2655 510.167 65.2367 511.144 66.206 512.695L33.982 532.835C36.3213 536.578 39.409 538.903 40.93 539.98C42.8103 541.311 44.8379 542.462 46.7402 543.444C50.5682 545.42 55.3912 547.475 60.9058 549.601C72.0224 553.887 87.6332 559.099 107.503 565.213L118.679 528.893ZM67.4564 515.048C65.887 511.517 62.1481 501.121 55.975 482.602L19.925 494.618C25.8959 512.531 30.253 524.905 32.7316 530.482L67.4564 515.048ZM56.1207 483.058C53.3938 474.134 51.4308 467.085 50.1672 461.801C49.5358 459.16 49.117 457.117 48.8643 455.601C48.5905 453.958 48.601 453.452 48.601 453.696H10.601C10.601 458.686 11.8125 464.797 13.2093 470.638C14.7287 476.992 16.9402 484.87 19.7793 494.162L56.1207 483.058ZM48.601 453.696C48.601 450.279 49.5454 443.944 52.424 433.869L15.886 423.429C12.6926 434.606 10.601 444.969 10.601 453.696H48.601ZM52.5017 433.588C55.9586 420.749 58.3793 410.808 59.0803 405.2L21.3737 400.486C21.0627 402.974 19.4354 410.237 15.8083 423.71L52.5017 433.588ZM59.0097 405.708C63.4851 376.37 70.7387 338.062 80.822 290.67L43.654 282.762C33.4973 330.498 26.0769 369.608 21.4443 399.978L59.0097 405.708ZM80.8321 290.622C93.4833 230.403 101.575 191.967 105.112 175.291L67.9396 167.405C64.3929 184.125 56.2928 222.601 43.6439 282.81L80.8321 290.622ZM105.305 174.237C107.293 161.316 109.529 148.393 112.015 135.468L74.6989 128.292C72.1245 141.679 69.8071 155.068 67.7469 168.459L105.305 174.237ZM111.86 136.197C114.985 122.803 119.377 113.434 124.294 107.113L94.2983 83.7831C85.0466 95.6781 78.8127 110.597 74.854 127.563L111.86 136.197ZM117.013 112.81L123.844 109.774L108.41 75.0495L101.579 78.0856L117.013 112.81ZM118.484 73.5587C118.502 73.561 118.596 73.5728 118.745 73.5962C118.875 73.6168 119.176 73.6661 119.579 73.7537C119.875 73.8181 120.786 74.0202 121.929 74.4401C122.497 74.6484 123.564 75.0691 124.815 75.7891C125.801 76.3571 128.481 77.987 130.77 81.1904C133.595 85.1464 135.655 91.4956 133.263 98.4174C131.347 103.964 127.531 106.85 126.138 107.815C123.254 109.811 120.515 110.461 120.297 110.519C119.479 110.736 118.846 110.841 118.601 110.88C118.299 110.928 118.079 110.954 117.988 110.964C117.868 110.977 118.8 110.905 121.692 110.838C126.889 110.717 135.864 110.653 148.764 110.653V72.653C135.858 72.653 126.491 72.7157 120.809 72.8479C118.261 72.9071 115.62 72.993 113.792 73.1961C113.45 73.2341 112.104 73.3777 110.552 73.7893C110.237 73.8731 107.43 74.5486 104.508 76.5716C103.095 77.5497 99.267 80.4493 97.3462 86.0096C94.9503 92.945 97.0122 99.3079 99.8479 103.278C102.146 106.495 104.843 108.139 105.854 108.721C107.129 109.455 108.228 109.89 108.835 110.113C110.057 110.561 111.074 110.792 111.507 110.886C112.476 111.097 113.332 111.21 113.77 111.265L118.484 73.5587ZM148.764 110.653C170.005 110.653 186.939 111.218 199.732 112.294C213.145 113.422 220.137 114.987 222.783 116.069L237.171 80.8986C228.685 77.427 216.576 75.5764 202.917 74.4276C188.64 73.2267 170.533 72.653 148.764 72.653V110.653ZM222.921 116.125C220.981 115.349 220.508 114.594 221.809 115.783C222.821 116.708 224.358 118.303 226.466 120.799C230.669 125.777 236.199 133.207 243.129 143.354L274.509 121.924C267.271 111.325 260.91 102.689 255.499 96.2823C252.8 93.0864 250.099 90.1584 247.443 87.7312C245.075 85.568 241.503 82.6306 237.033 80.8429L222.921 116.125ZM243.619 144.039C248.123 150.044 252.368 155.788 256.356 161.271L287.088 138.921C282.98 133.272 278.623 127.378 274.019 121.239L243.619 144.039ZM256.886 161.965C257.47 162.695 258.794 164.885 258.794 170.589H296.794C296.794 159.089 294.07 147.616 286.558 138.227L256.886 161.965ZM258.794 170.589C258.794 175.873 257.17 185.624 252.716 200.965L289.21 211.559C293.864 195.527 296.794 181.497 296.794 170.589H258.794ZM252.643 201.224C247.273 220.751 243.769 234.185 243.046 239.248L280.664 244.622C280.654 244.689 280.679 244.513 280.786 243.982C280.886 243.487 281.03 242.822 281.227 241.963C281.622 240.242 282.182 237.955 282.921 235.061C284.397 229.279 286.512 221.374 289.283 211.3L252.643 201.224ZM260.36 260.876C278.969 262.345 298.386 264.8 318.618 268.254L325.014 230.796C303.754 227.166 283.197 224.561 263.35 222.994L260.36 260.876ZM339.067 257.487C341.723 251.733 343.913 242.165 345.974 231.497C348.203 219.958 350.717 204.584 353.518 185.49L315.92 179.976C313.155 198.832 310.736 213.565 308.664 224.29C307.626 229.659 306.709 233.852 305.917 236.966C305.053 240.362 304.557 241.579 304.565 241.563L339.067 257.487ZM353.517 185.497C356.022 168.461 358.273 155.852 360.245 147.385C361.243 143.099 362.055 140.378 362.622 138.86C362.909 138.092 362.975 138.065 362.745 138.466C362.699 138.546 361.511 140.754 358.666 142.787L336.579 111.865C332.847 114.53 330.75 117.869 329.771 119.578C328.609 121.608 327.718 123.707 327.024 125.564C325.63 129.296 324.387 133.817 323.235 138.766C320.906 148.768 318.476 162.596 315.921 179.969L353.517 185.497ZM359.987 141.752C358.81 142.761 357.955 143.067 358.056 143.027C358.118 143.003 358.652 142.81 359.852 142.585C362.306 142.125 366.207 141.772 371.91 141.772V103.772C364.963 103.772 358.491 104.178 352.849 105.236C347.694 106.202 340.827 108.126 335.257 112.9L359.987 141.752ZM371.91 141.772C381.088 141.772 395.397 143.117 415.391 146.116L421.027 108.536C400.541 105.463 383.984 103.772 371.91 103.772V141.772ZM415.909 146.186C436.794 148.733 453.177 150.121 464.508 150.121V112.121C455.599 112.121 441.116 110.979 420.509 108.466L415.909 146.186ZM464.508 150.121C468.877 150.121 471.771 150.496 473.522 150.919C475.341 151.358 475.033 151.63 474.007 150.733L499.031 122.135C489.436 113.739 475.887 112.121 464.508 112.121V150.121ZM475.98 152.243C474.494 151.253 473.55 150.265 473.079 149.726C472.584 149.158 472.317 148.745 472.249 148.636C472.135 148.456 472.333 148.744 472.785 149.806C473.683 151.916 474.898 155.44 476.386 160.737C479.334 171.232 482.822 186.752 486.837 207.581L524.151 200.389C520.07 179.22 516.347 162.482 512.97 150.461C511.296 144.499 509.57 139.2 507.748 134.921C506.84 132.789 505.734 130.492 504.371 128.335C503.192 126.47 500.886 123.177 497.058 120.625L475.98 152.243ZM486.891 207.85C490.914 227.207 493.891 242.798 495.855 254.704C497.884 267.001 498.638 274.276 498.638 277.608H536.638C536.638 270.82 535.368 260.765 533.349 248.52C531.265 235.885 528.171 219.725 524.097 200.119L486.891 207.85ZM516.145 285.957C516.145 276.848 513.748 260.434 509.767 238.536L472.379 245.334C476.494 267.964 478.145 280.898 478.145 285.957H516.145ZM509.78 238.609C507.734 227.1 505.903 217.726 504.291 210.605C502.866 204.311 501.175 197.643 498.959 193.211L464.971 210.205C464.779 209.821 465.618 211.882 467.229 218.996C468.653 225.284 470.364 234 472.366 245.261L509.78 238.609ZM463.336 197.972L407.17 478.043L444.428 485.515L500.594 205.444L463.336 197.972ZM406.893 483.67C406.856 483.297 406.984 484.014 406.418 486.279C405.875 488.451 404.851 491.428 403.124 495.314L437.848 510.748C442.178 501.007 445.726 490.101 444.705 479.888L406.893 483.67ZM402.778 496.145C400.924 500.912 399.406 505.139 398.324 508.694C397.444 511.587 396.173 516.103 396.173 520.488H434.173C434.173 521.776 433.985 522.417 434.092 521.916C434.163 521.58 434.334 520.889 434.678 519.758C435.367 517.494 436.506 514.258 438.194 509.917L402.778 496.145ZM396.173 520.488C396.173 528.161 397.996 537.23 400.661 546.825L437.275 536.655C434.88 528.034 434.173 522.935 434.173 520.488H396.173ZM400.791 547.272C402.548 553.044 403.904 557.609 404.874 561.001C405.359 562.699 405.731 564.048 406.001 565.076C406.136 565.588 406.237 565.988 406.31 566.288C406.386 566.603 406.411 566.73 406.409 566.718L443.671 559.266C442.936 555.592 440.556 547.415 437.145 536.208L400.791 547.272ZM442.588 570.276C454.322 542.009 464.983 505.38 474.721 460.786L437.597 452.678C428.107 496.128 418.022 530.339 407.492 555.708L442.588 570.276ZM474.8 460.408C481.871 424.549 489.194 388.437 496.771 352.07L459.569 344.32C451.966 380.817 444.615 417.063 437.518 453.056L474.8 460.408ZM496.405 353.532C502.437 332.923 508.721 312.312 515.256 291.7L479.034 280.214C472.413 301.094 466.047 321.975 459.935 342.858L496.405 353.532ZM270.825 158.238C265.782 149.273 259.001 139.009 250.656 127.536L219.924 149.886C227.772 160.677 233.64 169.641 237.705 176.868L270.825 158.238ZM217.866 131.135C212.211 144.14 207.101 160.464 202.407 179.76L239.331 188.742C243.745 170.594 248.249 156.558 252.714 146.287L217.866 131.135ZM202.397 179.804C195.98 206.46 192.105 223.167 191.434 227.863L229.052 233.237C229.048 233.266 229.087 233.004 229.227 232.286C229.355 231.625 229.535 230.747 229.774 229.628C230.251 227.392 230.922 224.383 231.798 220.569C233.546 212.95 236.058 202.336 239.341 188.698L202.397 179.804ZM205.244 248.881C211.312 250.535 220.315 252.645 232.013 255.188L240.085 218.056C228.507 215.539 220.306 213.601 215.242 212.219L205.244 248.881ZM254.017 242.798C259.933 225.59 266.187 201.746 272.82 171.641L235.71 163.465C229.187 193.068 223.298 215.27 218.081 230.445L254.017 242.798ZM464.918 139.636C443.094 136.518 410.764 133.193 368.175 129.644L365.019 167.512C407.438 171.047 438.864 174.3 459.544 177.254L464.918 139.636ZM347.846 145.51C343.292 173.34 336.461 215.085 327.353 270.745L364.855 276.881C373.963 221.221 380.794 179.476 385.348 151.646L347.846 145.51ZM332.669 260.378L329.633 263.414L356.503 290.284L359.539 287.248L332.669 260.378ZM346.261 258.119C301.411 250.474 265.751 246.464 239.844 246.464V284.464C262.513 284.464 295.669 288.044 339.875 295.579L346.261 258.119ZM239.844 246.464C222.796 246.464 211.676 245.311 205.362 243.664C202.126 242.82 201.704 242.228 202.456 242.817C203.767 243.842 206.473 246.959 206.473 251.802H168.473C168.473 261.199 173.361 268.3 179.036 272.742C184.152 276.746 190.277 279 195.77 280.433C206.913 283.34 221.978 284.464 239.844 284.464V246.464ZM206.473 251.802C206.473 242.117 209.491 222.838 216.602 192.363L179.596 183.729C172.539 213.974 168.473 237.199 168.473 251.802H206.473ZM216.627 192.257C221.71 169.89 226.54 147.773 231.117 125.905L193.923 118.121C189.392 139.769 184.608 161.674 179.571 183.835L216.627 192.257ZM214 103.071C181.675 100.545 158.714 99.218 145.728 99.218V137.218C157.03 137.218 178.597 138.421 211.04 140.955L214 103.071ZM145.728 99.218C137.659 99.218 128.415 100.989 118.632 103.706L128.802 140.32C137.235 137.977 142.665 137.218 145.728 137.218V99.218ZM105.749 115.836C94.1807 149.489 80.0613 207.233 63.3637 288.191L100.58 295.867C117.279 214.905 130.989 159.305 141.685 128.19L105.749 115.836ZM63.376 288.132C45.7566 372.201 36.407 429.859 36.407 459.009H74.407C74.407 434.523 82.7674 380.861 100.568 295.926L63.376 288.132ZM50.4618 477.354C79.543 485.193 100.879 491.047 114.535 494.931C121.41 496.886 126.138 498.286 128.891 499.166C130.466 499.669 130.745 499.799 130.415 499.659C130.299 499.609 129.787 499.392 129.107 499.022C128.768 498.838 128.135 498.48 127.379 497.95C126.809 497.55 125.172 496.374 123.559 494.373C122.324 492.843 117.9 486.846 119.83 478.301C121.818 469.495 128.69 465.993 130.73 465.102C133.215 464.017 135.327 463.746 136.034 463.663C136.986 463.551 137.741 463.538 138.138 463.538V501.538C138.63 501.538 139.464 501.522 140.482 501.402C141.254 501.311 143.416 501.028 145.936 499.928C148.011 499.022 154.903 495.501 156.897 486.671C158.831 478.104 154.398 472.08 153.138 470.519C151.5 468.487 149.823 467.277 149.199 466.839C148.389 466.27 147.686 465.871 147.262 465.64C146.414 465.178 145.673 464.854 145.268 464.682C143.784 464.052 141.952 463.446 140.459 462.969C137.077 461.888 131.843 460.347 124.93 458.38C111.008 454.421 89.461 448.511 60.3522 440.664L50.4618 477.354ZM156.273 488.205C161.46 471.608 168.376 446.998 176.994 414.552L140.268 404.796C131.682 437.118 124.936 461.084 120.003 476.871L156.273 488.205ZM177.233 413.542C182.503 388.198 187.177 369.995 191.194 358.401C193.248 352.474 194.802 349.256 195.672 347.862C196.115 347.152 195.875 347.745 194.751 348.699C193.6 349.676 190.307 352.015 185.196 352.015V314.015C178.314 314.015 173.194 317.153 170.162 319.727C167.157 322.278 164.98 325.266 163.43 327.751C160.315 332.744 157.663 339.109 155.289 345.959C150.452 359.917 145.385 380.044 140.029 405.806L177.233 413.542ZM185.196 352.015C247.653 352.015 296.687 357.035 332.92 366.569L342.59 329.821C301.911 319.115 249.239 314.015 185.196 314.015V352.015ZM319.095 344.616C311.945 381.897 302.543 438.081 290.897 513.016L328.447 518.852C340.077 444.011 349.397 388.369 356.415 351.774L319.095 344.616ZM306.985 534.743C341.641 539.694 364.377 542.524 372.669 542.524V504.524C367.805 504.524 348.543 502.294 312.359 497.125L306.985 534.743ZM372.669 542.524C381.432 542.524 389.946 541.714 397.273 539.272C404.593 536.832 413.331 531.805 417.531 521.724L382.455 507.108C384.125 503.099 387.044 502.626 385.256 503.222C383.475 503.816 379.592 504.524 372.669 504.524V542.524ZM416.987 522.913C419.622 517.644 421.601 510.488 423.277 503.012C425.055 495.077 426.839 485.112 428.644 473.252L391.076 467.536C389.339 478.952 387.707 487.962 386.197 494.701C384.583 501.899 383.4 505.116 382.999 505.919L416.987 522.913ZM428.632 473.327C431.192 456.944 433.496 440.56 435.544 424.175L397.838 419.461C395.838 435.46 393.588 451.46 391.088 467.461L428.632 473.327ZM435.366 425.319C436.705 418.173 442.509 395.568 453.238 356.23L416.576 346.232C406.053 384.818 399.713 409.271 398.016 418.316L435.366 425.319ZM453.256 356.161C471.839 286.994 481.231 221.065 481.231 158.445H443.231C443.231 217.265 434.407 279.86 416.558 346.301L453.256 356.161ZM239.869 401.325C239.869 395.67 237.793 390.778 236.444 387.957C234.846 384.615 232.726 381.122 230.367 377.619C225.624 370.577 218.851 361.936 210.326 351.861L181.318 376.407C189.491 386.066 195.241 393.49 198.848 398.846C200.663 401.541 201.674 403.329 202.163 404.352C202.901 405.895 201.869 404.45 201.869 401.325H239.869ZM178.828 355.637C173.461 366.37 165.947 387.89 156.43 418.445L192.71 429.745C202.421 398.568 209.075 380.114 212.816 372.631L178.828 355.637ZM156.435 418.428C151.332 434.757 147.428 448.14 144.78 458.464C142.335 468.001 140.39 476.983 140.39 483.297H178.39C178.39 483.342 178.434 482.182 179.009 479.135C179.539 476.327 180.382 472.612 181.59 467.903C184.002 458.493 187.688 445.817 192.705 429.762L156.435 418.428ZM140.39 483.297C140.39 494.247 143.843 505.484 149.05 516.478L183.392 500.21C179.491 491.976 178.39 486.515 178.39 483.297H140.39ZM149.004 516.379C152.623 524.136 156.493 532.133 160.612 540.37L194.6 523.376C190.623 515.421 186.903 507.732 183.438 500.309L149.004 516.379ZM195.641 537.85C195.698 537.68 195.754 537.51 195.81 537.34C195.867 537.171 195.923 537.001 195.979 536.832C196.035 536.663 196.091 536.493 196.147 536.324C196.203 536.155 196.259 535.987 196.315 535.818C196.371 535.649 196.427 535.481 196.482 535.313C196.538 535.144 196.594 534.976 196.649 534.808C196.705 534.64 196.761 534.472 196.816 534.305C196.872 534.137 196.927 533.969 196.983 533.802C197.038 533.635 197.094 533.468 197.149 533.301C197.204 533.134 197.26 532.967 197.315 532.8C197.37 532.633 197.425 532.467 197.48 532.301C197.536 532.134 197.591 531.968 197.646 531.802C197.701 531.636 197.756 531.47 197.811 531.305C197.865 531.139 197.92 530.973 197.975 530.808C198.03 530.643 198.085 530.478 198.139 530.313C198.194 530.148 198.249 529.983 198.303 529.818C198.358 529.653 198.412 529.489 198.467 529.325C198.521 529.16 198.576 528.996 198.63 528.832C198.684 528.668 198.739 528.504 198.793 528.341C198.847 528.177 198.901 528.013 198.955 527.85C199.009 527.687 199.064 527.523 199.118 527.36C199.172 527.197 199.226 527.035 199.279 526.872C199.333 526.709 199.387 526.547 199.441 526.384C199.495 526.222 199.549 526.06 199.602 525.898C199.656 525.736 199.71 525.574 199.763 525.412C199.817 525.251 199.87 525.089 199.924 524.928C199.977 524.766 200.031 524.605 200.084 524.444C200.137 524.283 200.191 524.122 200.244 523.962C200.297 523.801 200.35 523.64 200.404 523.48C200.457 523.32 200.51 523.159 200.563 522.999C200.616 522.839 200.669 522.68 200.722 522.52C200.775 522.36 200.828 522.201 200.88 522.041C200.933 521.882 200.986 521.723 201.039 521.564C201.091 521.405 201.144 521.246 201.197 521.087C201.249 520.928 201.302 520.77 201.354 520.612C201.407 520.453 201.459 520.295 201.511 520.137C201.564 519.979 201.616 519.821 201.668 519.663C201.721 519.506 201.773 519.348 201.825 519.191C201.877 519.033 201.929 518.876 201.981 518.719C202.033 518.562 202.085 518.405 202.137 518.249C202.189 518.092 202.241 517.935 202.293 517.779C202.345 517.623 202.396 517.466 202.448 517.31C202.5 517.154 202.552 516.998 202.603 516.843C202.655 516.687 202.706 516.531 202.758 516.376C202.809 516.221 202.861 516.065 202.912 515.91C202.963 515.755 203.015 515.6 203.066 515.446C203.117 515.291 203.169 515.137 203.22 514.982C203.271 514.828 203.322 514.674 203.373 514.519C203.424 514.365 203.475 514.212 203.526 514.058C203.577 513.904 203.628 513.751 203.679 513.597C203.729 513.444 203.78 513.291 203.831 513.138C203.882 512.984 203.932 512.832 203.983 512.679C204.034 512.526 204.084 512.374 204.135 512.221C204.185 512.069 204.236 511.917 204.286 511.765C204.336 511.612 204.387 511.461 204.437 511.309C204.487 511.157 204.538 511.006 204.588 510.854C204.638 510.703 204.688 510.552 204.738 510.401C204.788 510.249 204.838 510.099 204.888 509.948C204.938 509.797 204.988 509.647 205.038 509.496C205.088 509.346 205.137 509.196 205.187 509.045C205.237 508.895 205.286 508.746 205.336 508.596C205.386 508.446 205.435 508.296 205.485 508.147C205.534 507.998 205.584 507.848 205.633 507.699C205.683 507.55 205.732 507.401 205.781 507.253C205.831 507.104 205.88 506.955 205.929 506.807C205.978 506.659 206.027 506.51 206.076 506.362C206.125 506.214 206.174 506.066 206.223 505.919C206.272 505.771 206.321 505.623 206.37 505.476C206.419 505.328 206.468 505.181 206.516 505.034C206.565 504.887 206.614 504.74 206.663 504.593C206.711 504.447 206.76 504.3 206.808 504.154C206.857 504.007 206.905 503.861 206.954 503.715C207.002 503.569 207.05 503.423 207.099 503.277C207.147 503.131 207.195 502.986 207.243 502.84C207.292 502.695 207.34 502.55 207.388 502.405C207.436 502.26 207.484 502.115 207.532 501.97C207.58 501.825 207.628 501.681 207.676 501.536C207.724 501.392 207.771 501.247 207.819 501.103C207.867 500.959 207.915 500.815 207.962 500.672C208.01 500.528 208.057 500.384 208.105 500.241C208.152 500.097 208.2 499.954 208.247 499.811C208.295 499.668 208.342 499.525 208.389 499.382C208.437 499.239 208.484 499.097 208.531 498.954C208.578 498.812 208.626 498.67 208.673 498.528C208.72 498.386 208.767 498.244 208.814 498.102C208.861 497.96 208.908 497.819 208.955 497.677C209.001 497.536 209.048 497.394 209.095 497.253C209.142 497.112 209.188 496.971 209.235 496.83C209.282 496.69 209.328 496.549 209.375 496.409C209.421 496.268 209.468 496.128 209.514 495.988C209.561 495.848 209.607 495.708 209.653 495.568C209.7 495.428 209.746 495.289 209.792 495.149C209.838 495.01 209.885 494.871 209.931 494.731C209.977 494.592 210.023 494.453 210.069 494.315C210.115 494.176 210.161 494.037 210.207 493.899C210.253 493.76 210.298 493.622 210.344 493.484C210.39 493.346 210.436 493.208 210.481 493.07C210.527 492.932 210.573 492.795 210.618 492.657C210.664 492.52 210.709 492.383 210.755 492.245C210.8 492.108 210.845 491.971 210.891 491.835C210.936 491.698 210.981 491.561 211.027 491.425C211.072 491.288 211.117 491.152 211.162 491.016C211.207 490.88 211.252 490.744 211.297 490.608C211.342 490.472 211.387 490.337 211.432 490.201C211.477 490.066 211.522 489.93 211.567 489.795C211.611 489.66 211.656 489.525 211.701 489.39C211.745 489.256 211.79 489.121 211.835 488.986C211.879 488.852 211.924 488.718 211.968 488.584C212.013 488.449 212.057 488.316 212.101 488.182C212.146 488.048 212.19 487.914 212.234 487.781C212.278 487.647 212.322 487.514 212.367 487.381C212.411 487.248 212.455 487.115 212.499 486.982C212.543 486.849 212.587 486.717 212.631 486.584C212.675 486.452 212.718 486.319 212.762 486.187C212.806 486.055 212.85 485.923 212.893 485.791C212.937 485.66 212.981 485.528 213.024 485.396C213.068 485.265 213.111 485.134 213.155 485.002C213.198 484.871 213.242 484.74 213.285 484.61C213.328 484.479 213.372 484.348 213.415 484.218C213.458 484.087 213.501 483.957 213.544 483.827C213.588 483.697 213.631 483.567 213.674 483.437C213.717 483.307 213.76 483.177 213.803 483.048C213.845 482.918 213.888 482.789 213.931 482.66C213.974 482.531 214.017 482.402 214.059 482.273C214.102 482.144 214.145 482.015 214.187 481.887C214.23 481.758 214.272 481.63 214.315 481.502C214.357 481.374 214.4 481.246 214.442 481.118C214.484 480.99 214.527 480.863 214.569 480.735C214.611 480.608 214.653 480.48 214.696 480.353C214.738 480.226 214.78 480.099 214.822 479.972C214.864 479.845 214.906 479.719 214.948 479.592C214.99 479.466 215.032 479.339 215.073 479.213C215.115 479.087 215.157 478.961 215.199 478.835C215.24 478.709 215.282 478.584 215.324 478.458C215.365 478.333 215.407 478.207 215.448 478.082C215.49 477.957 215.531 477.832 215.572 477.707C215.614 477.582 215.655 477.458 215.696 477.333C215.738 477.209 215.779 477.084 215.82 476.96C215.861 476.836 215.902 476.712 215.943 476.588C215.984 476.464 216.025 476.341 216.066 476.217C216.107 476.094 216.148 475.97 216.189 475.847C216.23 475.724 216.27 475.601 216.311 475.478C216.352 475.355 216.392 475.233 216.433 475.11C216.474 474.988 216.514 474.865 216.555 474.743C216.595 474.621 216.636 474.499 216.676 474.377C216.716 474.255 216.757 474.134 216.797 474.012C216.837 473.891 216.877 473.769 216.918 473.648C216.958 473.527 216.998 473.406 217.038 473.285C217.078 473.164 217.118 473.043 217.158 472.923C217.198 472.802 217.238 472.682 217.278 472.562C217.317 472.442 217.357 472.322 217.397 472.202C217.437 472.082 217.476 471.962 217.516 471.843C217.555 471.723 217.595 471.604 217.635 471.485C217.674 471.366 217.713 471.247 217.753 471.128C217.792 471.009 217.832 470.89 217.871 470.772C217.91 470.653 217.949 470.535 217.989 470.417C218.028 470.298 218.067 470.18 218.106 470.062C218.145 469.945 218.184 469.827 218.223 469.709C218.262 469.592 218.301 469.474 218.34 469.357C218.378 469.24 218.417 469.123 218.456 469.006C218.495 468.889 218.533 468.773 218.572 468.656C218.611 468.54 218.649 468.423 218.688 468.307C218.726 468.191 218.765 468.075 218.803 467.959C218.841 467.843 218.88 467.727 218.918 467.612C218.956 467.496 218.995 467.381 219.033 467.266C219.071 467.15 219.109 467.035 219.147 466.921C219.185 466.806 219.223 466.691 219.261 466.576C219.299 466.462 219.337 466.348 219.375 466.233C219.413 466.119 219.45 466.005 219.488 465.891C219.526 465.777 219.564 465.664 219.601 465.55C219.639 465.437 219.676 465.323 219.714 465.21C219.752 465.097 219.789 464.984 219.826 464.871C219.864 464.758 219.901 464.645 219.938 464.533C219.976 464.42 220.013 464.308 220.05 464.195C220.087 464.083 220.124 463.971 220.162 463.859C220.199 463.747 220.236 463.636 220.273 463.524C220.31 463.413 220.347 463.301 220.383 463.19C220.42 463.079 220.457 462.968 220.494 462.857C220.531 462.746 220.567 462.635 220.604 462.525C220.64 462.414 220.677 462.304 220.714 462.194C220.75 462.083 220.787 461.973 220.823 461.863C220.859 461.753 220.896 461.644 220.932 461.534C220.968 461.425 221.005 461.315 221.041 461.206C221.077 461.097 221.113 460.988 221.149 460.879C221.185 460.77 221.221 460.661 221.257 460.553C221.293 460.444 221.329 460.336 221.365 460.227C221.401 460.119 221.437 460.011 221.473 459.903C221.508 459.795 221.544 459.688 221.58 459.58C221.615 459.472 221.651 459.365 221.686 459.258C221.722 459.151 221.758 459.043 221.793 458.937C221.828 458.83 221.864 458.723 221.899 458.616C221.934 458.51 221.97 458.403 222.005 458.297C222.04 458.191 222.075 458.085 222.11 457.979C222.145 457.873 222.18 457.767 222.215 457.662C222.25 457.556 222.285 457.451 222.32 457.345C222.355 457.24 222.39 457.135 222.425 457.03C222.459 456.925 222.494 456.821 222.529 456.716C222.563 456.611 222.598 456.507 222.633 456.403C222.667 456.299 222.702 456.194 222.736 456.091C222.771 455.987 222.805 455.883 222.839 455.779C222.874 455.676 222.908 455.572 222.942 455.469C222.976 455.366 223.01 455.263 223.045 455.16C223.079 455.057 223.113 454.954 223.147 454.851C223.181 454.749 223.215 454.646 223.249 454.544C223.282 454.442 223.316 454.34 223.35 454.238C223.384 454.136 223.418 454.034 223.451 453.933C223.485 453.831 223.518 453.73 223.552 453.628C223.586 453.527 223.619 453.426 223.653 453.325C223.686 453.224 223.719 453.123 223.753 453.023C223.786 452.922 223.819 452.822 223.853 452.722C223.886 452.621 223.919 452.521 223.952 452.421C223.985 452.321 224.018 452.222 224.051 452.122C224.084 452.022 224.117 451.923 224.15 451.824C224.183 451.724 224.216 451.625 224.249 451.526C224.281 451.427 224.314 451.329 224.347 451.23C224.38 451.131 224.412 451.033 224.445 450.935C224.477 450.836 224.51 450.738 224.542 450.64C224.575 450.542 224.607 450.445 224.639 450.347C224.672 450.249 224.704 450.152 224.736 450.055C224.769 449.957 224.801 449.86 224.833 449.763C224.865 449.666 224.897 449.57 224.929 449.473C224.961 449.376 224.993 449.28 225.025 449.184C225.057 449.087 225.089 448.991 225.121 448.895C225.152 448.799 225.184 448.704 225.216 448.608C225.247 448.512 225.279 448.417 225.311 448.322C225.342 448.226 225.374 448.131 225.405 448.036C225.437 447.941 225.468 447.847 225.499 447.752C225.531 447.657 225.562 447.563 225.593 447.469C225.625 447.374 225.656 447.28 225.687 447.186C225.718 447.092 225.749 446.999 225.78 446.905C225.811 446.811 225.842 446.718 225.873 446.625C225.904 446.531 225.935 446.438 225.966 446.345C225.996 446.252 226.027 446.159 226.058 446.067C226.089 445.974 226.119 445.882 226.15 445.789C226.18 445.697 226.211 445.605 226.241 445.513C226.272 445.421 226.302 445.329 226.333 445.238C226.363 445.146 226.393 445.054 226.424 444.963C226.454 444.872 226.484 444.781 226.514 444.69C226.544 444.599 226.575 444.508 226.605 444.417C226.635 444.327 226.665 444.236 226.694 444.146C226.724 444.056 226.754 443.966 226.784 443.876C226.814 443.786 226.844 443.696 226.873 443.606C226.903 443.516 226.933 443.427 226.962 443.338C226.992 443.248 227.021 443.159 227.051 443.07C227.08 442.981 227.11 442.892 227.139 442.804C227.169 442.715 227.198 442.627 227.227 442.538C227.256 442.45 227.286 442.362 227.315 442.274C227.344 442.186 227.373 442.098 227.402 442.011C227.431 441.923 227.46 441.835 227.489 441.748C227.518 441.661 227.547 441.574 227.576 441.487C227.605 441.4 227.633 441.313 227.662 441.226C227.691 441.14 227.719 441.053 227.748 440.967C227.777 440.88 227.805 440.794 227.834 440.708C227.862 440.622 227.891 440.536 227.919 440.451C227.947 440.365 227.976 440.28 228.004 440.194C228.032 440.109 228.061 440.024 228.089 439.939C228.117 439.854 228.145 439.769 228.173 439.684C228.201 439.6 228.229 439.515 228.257 439.431C228.285 439.347 228.313 439.262 228.341 439.178C228.369 439.094 228.396 439.011 228.424 438.927C228.452 438.843 228.479 438.76 228.507 438.676C228.535 438.593 228.562 438.51 228.59 438.427C228.617 438.344 228.645 438.261 228.672 438.178C228.699 438.096 228.727 438.013 228.754 437.931C228.781 437.849 228.809 437.766 228.836 437.684C228.863 437.602 228.89 437.521 228.917 437.439C228.944 437.357 228.971 437.276 228.998 437.194C229.025 437.113 229.052 437.032 229.079 436.951C229.106 436.87 229.133 436.789 229.159 436.708C229.186 436.628 229.213 436.547 229.239 436.467C229.266 436.386 229.293 436.306 229.319 436.226C229.346 436.146 229.372 436.066 229.398 435.987C229.425 435.907 229.451 435.828 229.477 435.748C229.504 435.669 229.53 435.59 229.556 435.511C229.582 435.432 229.609 435.353 229.635 435.274C229.661 435.195 229.687 435.117 229.713 435.039C229.739 434.96 229.765 434.882 229.79 434.804C229.816 434.726 229.842 434.648 229.868 434.57C229.894 434.493 229.919 434.415 229.945 434.338C229.97 434.26 229.996 434.183 230.022 434.106C230.047 434.029 230.073 433.952 230.098 433.876C230.123 433.799 230.149 433.722 230.174 433.646C230.199 433.57 230.225 433.494 230.25 433.418C230.275 433.341 230.3 433.266 230.325 433.19C230.35 433.114 230.375 433.039 230.4 432.963C230.425 432.888 230.45 432.813 230.475 432.738C230.5 432.663 230.525 432.588 230.55 432.513C230.574 432.438 230.599 432.364 230.624 432.29C230.648 432.215 230.673 432.141 230.697 432.067C230.722 431.993 230.746 431.919 230.771 431.845C230.795 431.772 230.82 431.698 230.844 431.625C230.868 431.551 230.893 431.478 230.917 431.405C230.941 431.332 230.965 431.259 230.989 431.186C231.013 431.114 231.037 431.041 231.061 430.969C231.085 430.896 231.109 430.824 231.133 430.752C231.157 430.68 231.181 430.608 231.205 430.537C231.228 430.465 231.252 430.393 231.276 430.322C231.299 430.251 231.323 430.179 231.346 430.108C231.37 430.037 231.394 429.966 231.417 429.896C231.44 429.825 231.464 429.754 231.487 429.684C231.51 429.614 231.534 429.543 231.557 429.473C231.58 429.403 231.603 429.333 231.626 429.264C231.649 429.194 231.673 429.124 231.696 429.055C231.719 428.986 231.741 428.916 231.764 428.847C231.787 428.778 231.81 428.709 231.833 428.641C231.856 428.572 231.878 428.503 231.901 428.435C231.924 428.367 231.946 428.298 231.969 428.23C231.991 428.162 232.014 428.094 232.036 428.027C232.059 427.959 232.081 427.891 232.104 427.824C232.126 427.757 232.148 427.689 232.17 427.622C232.193 427.555 232.215 427.488 232.237 427.422C232.259 427.355 232.281 427.288 232.303 427.222C232.325 427.155 232.347 427.089 232.369 427.023C232.391 426.957 232.413 426.891 232.434 426.825C232.456 426.76 232.478 426.694 232.5 426.629C232.521 426.563 232.543 426.498 232.564 426.433C232.586 426.368 232.608 426.303 232.629 426.238C232.65 426.174 232.672 426.109 232.693 426.045C232.715 425.98 232.736 425.916 232.757 425.852C232.778 425.788 232.799 425.724 232.821 425.66C232.842 425.596 232.863 425.533 232.884 425.469C232.905 425.406 232.926 425.343 232.947 425.28C232.968 425.217 232.988 425.154 233.009 425.091C233.03 425.028 233.051 424.966 233.071 424.903C233.092 424.841 233.113 424.779 233.133 424.716C233.154 424.654 233.174 424.592 233.195 424.531C233.215 424.469 233.236 424.407 233.256 424.346C233.276 424.285 233.297 424.223 233.317 424.162C233.337 424.101 233.357 424.04 233.378 423.979C233.398 423.919 233.418 423.858 233.438 423.798C233.458 423.737 233.478 423.677 233.498 423.617C233.518 423.557 233.538 423.497 233.557 423.437C233.577 423.377 233.597 423.318 233.617 423.258C233.636 423.199 233.656 423.14 233.675 423.081C233.695 423.021 233.715 422.962 233.734 422.904C233.754 422.845 233.773 422.786 233.792 422.728C233.812 422.669 233.831 422.611 233.85 422.553C233.869 422.495 233.889 422.437 233.908 422.379C233.927 422.322 233.946 422.264 233.965 422.207C233.984 422.149 234.003 422.092 234.022 422.035C234.041 421.978 234.06 421.921 234.079 421.864C234.097 421.807 234.116 421.751 234.135 421.694C234.154 421.638 234.172 421.581 234.191 421.525C234.209 421.469 234.228 421.413 234.246 421.357C234.265 421.302 234.283 421.246 234.302 421.191C234.32 421.135 234.338 421.08 234.357 421.025C234.375 420.97 234.393 420.915 234.411 420.86C234.43 420.805 234.448 420.751 234.466 420.696C234.484 420.642 234.502 420.587 234.52 420.533C234.538 420.479 234.555 420.425 234.573 420.371C234.591 420.318 234.609 420.264 234.627 420.211C234.644 420.157 234.662 420.104 234.68 420.051C234.697 419.998 234.715 419.945 234.732 419.892C234.75 419.839 234.767 419.786 234.785 419.734C234.802 419.681 234.819 419.629 234.836 419.577C234.854 419.525 234.871 419.473 234.888 419.421C234.905 419.369 234.922 419.318 234.939 419.266C234.957 419.215 234.974 419.164 234.99 419.112C235.007 419.061 235.024 419.01 235.041 418.96C235.058 418.909 235.075 418.858 235.091 418.808C235.108 418.757 235.125 418.707 235.141 418.657C235.158 418.607 235.175 418.557 235.191 418.507C235.208 418.457 235.224 418.407 235.241 418.358C235.257 418.309 235.273 418.259 235.29 418.21C235.306 418.161 235.322 418.112 235.338 418.063C235.354 418.014 235.37 417.966 235.387 417.917C235.403 417.869 235.419 417.82 235.435 417.772C235.451 417.724 235.466 417.676 235.482 417.628C235.498 417.581 235.514 417.533 235.53 417.485C235.545 417.438 235.561 417.391 235.577 417.344C235.592 417.296 235.608 417.249 235.623 417.203C235.639 417.156 235.654 417.109 235.67 417.063C235.685 417.016 235.701 416.97 235.716 416.924C235.731 416.878 235.746 416.832 235.762 416.786C235.777 416.74 235.792 416.694 235.807 416.649C235.822 416.603 235.837 416.558 235.852 416.513C235.867 416.468 235.882 416.423 235.897 416.378C235.912 416.333 235.926 416.288 235.941 416.244C235.956 416.199 235.971 416.155 235.985 416.111C236 416.067 236.014 416.023 236.029 415.979C236.043 415.935 236.058 415.892 236.072 415.848C236.087 415.805 236.101 415.761 236.115 415.718C236.13 415.675 236.144 415.632 236.158 415.589C236.172 415.546 236.186 415.504 236.201 415.461C236.215 415.419 236.229 415.376 236.243 415.334C236.257 415.292 236.27 415.25 236.284 415.208C236.298 415.166 236.312 415.125 236.326 415.083C236.34 415.042 236.353 415 236.367 414.959C236.381 414.918 236.394 414.877 236.408 414.836C236.421 414.795 236.435 414.755 236.448 414.714C236.461 414.674 236.475 414.633 236.488 414.593C236.501 414.553 236.515 414.513 236.528 414.473C236.541 414.433 236.554 414.394 236.567 414.354C236.58 414.315 236.594 414.275 236.606 414.236C236.619 414.197 236.632 414.158 236.645 414.119C236.658 414.08 236.671 414.041 236.684 414.003C236.696 413.964 236.709 413.926 236.722 413.888C236.735 413.85 236.747 413.812 236.76 413.774C236.772 413.736 236.785 413.698 236.797 413.661C236.81 413.623 236.822 413.586 236.834 413.549C236.847 413.512 236.859 413.475 236.871 413.438C236.883 413.401 236.895 413.364 236.908 413.328C236.92 413.291 236.932 413.255 236.944 413.219C236.956 413.182 236.968 413.146 236.979 413.111C236.991 413.075 237.003 413.039 237.015 413.003C237.027 412.968 237.038 412.933 237.05 412.897C237.062 412.862 237.073 412.827 237.085 412.792C237.096 412.757 237.108 412.723 237.119 412.688C237.131 412.654 237.142 412.619 237.154 412.585C237.165 412.551 237.176 412.517 237.187 412.483C237.199 412.449 237.21 412.415 237.221 412.382C237.232 412.348 237.243 412.315 237.254 412.282C237.265 412.249 237.276 412.216 237.287 412.183C237.298 412.15 237.309 412.117 237.319 412.085C237.33 412.052 237.341 412.02 237.352 411.988C237.362 411.955 237.373 411.923 237.383 411.891C237.394 411.86 237.405 411.828 237.415 411.796C237.425 411.765 237.436 411.733 237.446 411.702C237.457 411.671 237.467 411.64 237.477 411.609C237.487 411.578 237.497 411.547 237.508 411.517C237.518 411.486 237.528 411.456 237.538 411.426C237.548 411.396 237.558 411.366 237.568 411.336C237.578 411.306 237.587 411.276 237.597 411.247C237.607 411.217 237.617 411.188 237.626 411.158C237.636 411.129 237.646 411.1 237.655 411.071C237.665 411.042 237.674 411.014 237.684 410.985C237.693 410.957 237.703 410.928 237.712 410.9C237.721 410.872 237.731 410.844 237.74 410.816C237.749 410.788 237.758 410.76 237.768 410.733C237.777 410.705 237.786 410.678 237.795 410.65C237.804 410.623 237.813 410.596 237.822 410.569C237.831 410.542 237.839 410.516 237.848 410.489C237.857 410.462 237.866 410.436 237.874 410.41C237.883 410.384 237.892 410.358 237.9 410.332C237.909 410.306 237.917 410.28 237.926 410.254C237.934 410.229 237.943 410.204 237.951 410.178C237.96 410.153 237.968 410.128 237.976 410.103C237.984 410.078 237.993 410.053 238.001 410.029C238.009 410.004 238.017 409.98 238.025 409.956C238.033 409.931 238.041 409.907 238.049 409.883C238.057 409.86 238.065 409.836 238.073 409.812C238.08 409.789 238.088 409.765 238.096 409.742C238.103 409.719 238.111 409.696 238.119 409.673C238.126 409.65 238.134 409.627 238.141 409.605C238.149 409.582 238.156 409.56 238.164 409.537C238.171 409.515 238.178 409.493 238.186 409.471C238.193 409.449 238.2 409.427 238.207 409.406C238.214 409.384 238.221 409.363 238.228 409.342C238.236 409.32 238.242 409.299 238.249 409.278C238.256 409.257 238.263 409.237 238.27 409.216C238.277 409.196 238.284 409.175 238.29 409.155C238.297 409.135 238.304 409.115 238.31 409.095C238.317 409.075 238.323 409.055 238.33 409.035C238.336 409.016 238.343 408.996 238.349 408.977C238.356 408.958 238.362 408.939 238.368 408.92C238.375 408.901 238.381 408.882 238.387 408.864C238.393 408.845 238.399 408.827 238.405 408.808C238.411 408.79 238.417 408.772 238.423 408.754C238.429 408.736 238.435 408.718 238.441 408.701C238.447 408.683 238.452 408.666 238.458 408.648C238.464 408.631 238.47 408.614 238.475 408.597C238.481 408.58 238.486 408.563 238.492 408.547C238.497 408.53 238.503 408.514 238.508 408.498C238.514 408.481 238.519 408.465 238.524 408.449C238.529 408.433 238.535 408.418 238.54 408.402C238.545 408.386 238.55 408.371 238.555 408.356C238.56 408.34 238.565 408.325 238.57 408.31C238.575 408.295 238.58 408.281 238.585 408.266C238.59 408.251 238.595 408.237 238.599 408.223C238.604 408.208 238.609 408.194 238.613 408.18C238.618 408.166 238.623 408.153 238.627 408.139C238.632 408.125 238.636 408.112 238.64 408.099C238.645 408.085 238.649 408.072 238.653 408.059C238.658 408.046 238.662 408.034 238.666 408.021C238.67 408.008 238.674 407.996 238.679 407.984C238.683 407.971 238.687 407.959 238.691 407.947C238.695 407.935 238.698 407.924 238.702 407.912C238.706 407.9 238.71 407.889 238.714 407.878C238.717 407.866 238.721 407.855 238.725 407.844C238.728 407.833 238.732 407.822 238.735 407.812C238.739 407.801 238.742 407.791 238.746 407.78C238.749 407.77 238.753 407.76 238.756 407.75C238.759 407.74 238.762 407.73 238.766 407.721C238.769 407.711 238.772 407.702 238.775 407.692C238.778 407.683 238.781 407.674 238.784 407.665C238.787 407.656 238.79 407.647 238.793 407.638C238.796 407.63 238.799 407.621 238.801 407.613C238.804 407.605 238.807 407.597 238.809 407.589C238.812 407.581 238.815 407.573 238.817 407.565C238.82 407.558 238.822 407.55 238.825 407.543C238.827 407.536 238.829 407.528 238.832 407.521C238.834 407.514 238.836 407.508 238.838 407.501C238.841 407.494 238.843 407.488 238.845 407.482C238.847 407.475 238.849 407.469 238.851 407.463C238.853 407.457 238.855 407.451 238.857 407.446C238.859 407.44 238.86 407.435 238.862 407.429C238.864 407.424 238.866 407.419 238.867 407.414C238.869 407.409 238.871 407.404 238.872 407.399C238.874 407.395 238.875 407.39 238.877 407.386C238.878 407.382 238.879 407.378 238.881 407.374C238.882 407.37 238.883 407.366 238.884 407.362C238.886 407.358 238.887 407.355 238.888 407.352C238.889 407.348 238.89 407.345 238.891 407.342C238.892 407.339 238.893 407.336 238.894 407.334C238.895 407.331 238.896 407.329 238.896 407.326C238.897 407.324 238.898 407.322 238.899 407.32C238.899 407.318 238.9 407.316 238.9 407.314C238.901 407.313 238.901 407.311 238.902 407.31C238.902 407.308 238.903 407.307 238.903 407.306C238.903 407.305 238.904 407.305 238.904 407.304C238.904 407.303 238.904 407.303 238.904 407.302C238.904 407.302 238.904 407.302 220.869 401.325C202.834 395.348 202.834 395.348 202.833 395.349C202.833 395.349 202.833 395.349 202.833 395.35C202.833 395.351 202.832 395.352 202.832 395.353C202.832 395.354 202.831 395.355 202.831 395.356C202.83 395.357 202.83 395.359 202.829 395.361C202.829 395.362 202.828 395.364 202.828 395.366C202.827 395.368 202.826 395.37 202.825 395.373C202.825 395.375 202.824 395.377 202.823 395.38C202.822 395.383 202.821 395.385 202.82 395.388C202.819 395.391 202.818 395.395 202.817 395.398C202.816 395.401 202.815 395.405 202.814 395.408C202.812 395.412 202.811 395.416 202.81 395.42C202.808 395.424 202.807 395.428 202.806 395.432C202.804 395.437 202.803 395.441 202.801 395.446C202.8 395.45 202.798 395.455 202.796 395.46C202.795 395.465 202.793 395.47 202.791 395.476C202.79 395.481 202.788 395.486 202.786 395.492C202.784 395.498 202.782 395.504 202.78 395.509C202.778 395.515 202.776 395.522 202.774 395.528C202.772 395.534 202.77 395.541 202.768 395.547C202.765 395.554 202.763 395.561 202.761 395.568C202.758 395.575 202.756 395.582 202.754 395.589C202.751 395.596 202.749 395.604 202.746 395.612C202.744 395.619 202.741 395.627 202.739 395.635C202.736 395.643 202.733 395.651 202.73 395.659C202.728 395.668 202.725 395.676 202.722 395.685C202.719 395.693 202.716 395.702 202.713 395.711C202.71 395.72 202.707 395.729 202.704 395.739C202.701 395.748 202.698 395.757 202.695 395.767C202.692 395.777 202.688 395.786 202.685 395.796C202.682 395.806 202.678 395.816 202.675 395.827C202.672 395.837 202.668 395.847 202.665 395.858C202.661 395.869 202.657 395.879 202.654 395.89C202.65 395.901 202.647 395.913 202.643 395.924C202.639 395.935 202.635 395.947 202.631 395.958C202.628 395.97 202.624 395.982 202.62 395.994C202.616 396.005 202.612 396.018 202.608 396.03C202.604 396.042 202.599 396.055 202.595 396.067C202.591 396.08 202.587 396.093 202.583 396.106C202.578 396.119 202.574 396.132 202.57 396.145C202.565 396.158 202.561 396.172 202.556 396.185C202.552 396.199 202.547 396.213 202.542 396.227C202.538 396.241 202.533 396.255 202.528 396.269C202.524 396.283 202.519 396.298 202.514 396.312C202.509 396.327 202.504 396.342 202.499 396.357C202.494 396.372 202.489 396.387 202.484 396.402C202.479 396.417 202.474 396.433 202.469 396.448C202.464 396.464 202.459 396.48 202.453 396.496C202.448 396.511 202.443 396.528 202.437 396.544C202.432 396.56 202.426 396.577 202.421 396.593C202.415 396.61 202.41 396.626 202.404 396.643C202.399 396.66 202.393 396.677 202.387 396.695C202.382 396.712 202.376 396.729 202.37 396.747C202.364 396.765 202.358 396.782 202.352 396.8C202.346 396.818 202.34 396.836 202.334 396.855C202.328 396.873 202.322 396.891 202.316 396.91C202.31 396.928 202.304 396.947 202.297 396.966C202.291 396.985 202.285 397.004 202.278 397.023C202.272 397.043 202.266 397.062 202.259 397.082C202.253 397.101 202.246 397.121 202.239 397.141C202.233 397.161 202.226 397.181 202.219 397.201C202.213 397.221 202.206 397.242 202.199 397.262C202.192 397.283 202.185 397.304 202.179 397.325C202.172 397.346 202.165 397.367 202.158 397.388C202.151 397.409 202.143 397.431 202.136 397.452C202.129 397.474 202.122 397.496 202.115 397.517C202.107 397.539 202.1 397.561 202.093 397.584C202.085 397.606 202.078 397.628 202.07 397.651C202.063 397.673 202.055 397.696 202.048 397.719C202.04 397.742 202.033 397.765 202.025 397.788C202.017 397.812 202.009 397.835 202.002 397.859C201.994 397.882 201.986 397.906 201.978 397.93C201.97 397.954 201.962 397.978 201.954 398.002C201.946 398.026 201.938 398.051 201.93 398.075C201.922 398.1 201.913 398.124 201.905 398.149C201.897 398.174 201.889 398.199 201.88 398.225C201.872 398.25 201.864 398.275 201.855 398.301C201.847 398.326 201.838 398.352 201.829 398.378C201.821 398.404 201.812 398.43 201.804 398.456C201.795 398.482 201.786 398.509 201.777 398.535C201.769 398.562 201.76 398.589 201.751 398.616C201.742 398.642 201.733 398.669 201.724 398.697C201.715 398.724 201.706 398.751 201.697 398.779C201.688 398.806 201.678 398.834 201.669 398.862C201.66 398.89 201.651 398.918 201.641 398.946C201.632 398.974 201.622 399.003 201.613 399.031C201.604 399.06 201.594 399.089 201.584 399.117C201.575 399.146 201.565 399.175 201.556 399.205C201.546 399.234 201.536 399.263 201.526 399.293C201.517 399.322 201.507 399.352 201.497 399.382C201.487 399.412 201.477 399.442 201.467 399.472C201.457 399.502 201.447 399.533 201.437 399.563C201.427 399.594 201.416 399.624 201.406 399.655C201.396 399.686 201.386 399.717 201.375 399.748C201.365 399.78 201.355 399.811 201.344 399.843C201.334 399.874 201.323 399.906 201.313 399.938C201.302 399.97 201.291 400.002 201.281 400.034C201.27 400.066 201.259 400.098 201.249 400.131C201.238 400.163 201.227 400.196 201.216 400.229C201.205 400.262 201.194 400.295 201.183 400.328C201.172 400.361 201.161 400.395 201.15 400.428C201.139 400.462 201.128 400.495 201.117 400.529C201.105 400.563 201.094 400.597 201.083 400.631C201.071 400.666 201.06 400.7 201.049 400.735C201.037 400.769 201.026 400.804 201.014 400.839C201.002 400.873 200.991 400.908 200.979 400.944C200.968 400.979 200.956 401.014 200.944 401.05C200.932 401.085 200.92 401.121 200.909 401.157C200.897 401.193 200.885 401.229 200.873 401.265C200.861 401.301 200.849 401.337 200.837 401.374C200.825 401.41 200.812 401.447 200.8 401.484C200.788 401.521 200.776 401.558 200.763 401.595C200.751 401.632 200.739 401.67 200.726 401.707C200.714 401.745 200.701 401.782 200.689 401.82C200.676 401.858 200.664 401.896 200.651 401.934C200.638 401.972 200.626 402.011 200.613 402.049C200.6 402.088 200.587 402.126 200.574 402.165C200.562 402.204 200.549 402.243 200.536 402.282C200.523 402.321 200.51 402.361 200.497 402.4C200.483 402.44 200.47 402.48 200.457 402.519C200.444 402.559 200.431 402.599 200.417 402.639C200.404 402.68 200.391 402.72 200.377 402.76C200.364 402.801 200.35 402.842 200.337 402.882C200.323 402.923 200.31 402.964 200.296 403.005C200.282 403.047 200.269 403.088 200.255 403.129C200.241 403.171 200.227 403.213 200.213 403.254C200.2 403.296 200.186 403.338 200.172 403.38C200.158 403.423 200.144 403.465 200.13 403.507C200.116 403.55 200.101 403.593 200.087 403.635C200.073 403.678 200.059 403.721 200.044 403.764C200.03 403.808 200.016 403.851 200.001 403.894C199.987 403.938 199.973 403.981 199.958 404.025C199.943 404.069 199.929 404.113 199.914 404.157C199.9 404.201 199.885 404.246 199.87 404.29C199.855 404.335 199.841 404.379 199.826 404.424C199.811 404.469 199.796 404.514 199.781 404.559C199.766 404.604 199.751 404.65 199.736 404.695C199.721 404.741 199.706 404.786 199.691 404.832C199.675 404.878 199.66 404.924 199.645 404.97C199.63 405.016 199.614 405.062 199.599 405.109C199.583 405.155 199.568 405.202 199.552 405.249C199.537 405.296 199.521 405.343 199.506 405.39C199.49 405.437 199.474 405.484 199.459 405.532C199.443 405.579 199.427 405.627 199.411 405.675C199.396 405.722 199.38 405.77 199.364 405.819C199.348 405.867 199.332 405.915 199.316 405.964C199.3 406.012 199.283 406.061 199.267 406.109C199.251 406.158 199.235 406.207 199.219 406.256C199.202 406.305 199.186 406.355 199.17 406.404C199.153 406.454 199.137 406.503 199.12 406.553C199.104 406.603 199.087 406.653 199.071 406.703C199.054 406.753 199.037 406.803 199.021 406.854C199.004 406.904 198.987 406.955 198.97 407.006C198.953 407.057 198.937 407.108 198.92 407.159C198.903 407.21 198.886 407.261 198.869 407.313C198.852 407.364 198.834 407.416 198.817 407.467C198.8 407.519 198.783 407.571 198.766 407.623C198.748 407.675 198.731 407.728 198.714 407.78C198.696 407.833 198.679 407.885 198.661 407.938C198.644 407.991 198.626 408.044 198.609 408.097C198.591 408.15 198.573 408.203 198.556 408.257C198.538 408.31 198.52 408.364 198.502 408.418C198.485 408.471 198.467 408.525 198.449 408.58C198.431 408.634 198.413 408.688 198.395 408.742C198.377 408.797 198.359 408.851 198.34 408.906C198.322 408.961 198.304 409.016 198.286 409.071C198.268 409.126 198.249 409.181 198.231 409.237C198.213 409.292 198.194 409.348 198.176 409.404C198.157 409.459 198.139 409.515 198.12 409.572C198.101 409.628 198.083 409.684 198.064 409.74C198.045 409.797 198.027 409.853 198.008 409.91C197.989 409.967 197.97 410.024 197.951 410.081C197.932 410.138 197.913 410.195 197.894 410.253C197.875 410.31 197.856 410.368 197.837 410.426C197.818 410.483 197.799 410.541 197.779 410.599C197.76 410.658 197.741 410.716 197.721 410.774C197.702 410.833 197.683 410.891 197.663 410.95C197.644 411.009 197.624 411.068 197.605 411.127C197.585 411.186 197.565 411.245 197.546 411.305C197.526 411.364 197.506 411.424 197.486 411.483C197.467 411.543 197.447 411.603 197.427 411.663C197.407 411.723 197.387 411.783 197.367 411.844C197.347 411.904 197.327 411.965 197.307 412.026C197.287 412.086 197.266 412.147 197.246 412.208C197.226 412.27 197.206 412.331 197.185 412.392C197.165 412.454 197.144 412.515 197.124 412.577C197.104 412.639 197.083 412.701 197.062 412.763C197.042 412.825 197.021 412.887 197.001 412.949C196.98 413.012 196.959 413.074 196.938 413.137C196.918 413.2 196.897 413.263 196.876 413.326C196.855 413.389 196.834 413.452 196.813 413.516C196.792 413.579 196.771 413.643 196.75 413.706C196.729 413.77 196.707 413.834 196.686 413.898C196.665 413.962 196.644 414.026 196.622 414.091C196.601 414.155 196.58 414.22 196.558 414.285C196.537 414.349 196.515 414.414 196.494 414.479C196.472 414.544 196.45 414.61 196.429 414.675C196.407 414.74 196.385 414.806 196.364 414.872C196.342 414.937 196.32 415.003 196.298 415.069C196.276 415.136 196.254 415.202 196.232 415.268C196.21 415.335 196.188 415.401 196.166 415.468C196.144 415.535 196.122 415.601 196.099 415.669C196.077 415.736 196.055 415.803 196.033 415.87C196.01 415.938 195.988 416.005 195.965 416.073C195.943 416.141 195.921 416.209 195.898 416.277C195.875 416.345 195.853 416.413 195.83 416.481C195.807 416.55 195.785 416.618 195.762 416.687C195.739 416.756 195.716 416.825 195.693 416.894C195.671 416.963 195.648 417.032 195.625 417.101C195.602 417.171 195.579 417.24 195.556 417.31C195.532 417.38 195.509 417.45 195.486 417.52C195.463 417.59 195.44 417.66 195.416 417.73C195.393 417.801 195.37 417.871 195.346 417.942C195.323 418.013 195.299 418.084 195.276 418.155C195.252 418.226 195.228 418.297 195.205 418.368C195.181 418.44 195.157 418.511 195.134 418.583C195.11 418.655 195.086 418.726 195.062 418.799C195.038 418.871 195.014 418.943 194.99 419.015C194.966 419.088 194.942 419.16 194.918 419.233C194.894 419.305 194.87 419.378 194.846 419.451C194.822 419.524 194.797 419.598 194.773 419.671C194.749 419.744 194.724 419.818 194.7 419.892C194.676 419.965 194.651 420.039 194.627 420.113C194.602 420.187 194.577 420.261 194.553 420.336C194.528 420.41 194.503 420.485 194.479 420.559C194.454 420.634 194.429 420.709 194.404 420.784C194.379 420.859 194.354 420.934 194.329 421.01C194.304 421.085 194.279 421.161 194.254 421.236C194.229 421.312 194.204 421.388 194.179 421.464C194.154 421.54 194.129 421.616 194.103 421.692C194.078 421.769 194.053 421.845 194.027 421.922C194.002 421.999 193.976 422.076 193.951 422.153C193.925 422.23 193.9 422.307 193.874 422.384C193.848 422.461 193.823 422.539 193.797 422.617C193.771 422.694 193.745 422.772 193.719 422.85C193.694 422.928 193.668 423.006 193.642 423.085C193.616 423.163 193.59 423.242 193.564 423.32C193.538 423.399 193.511 423.478 193.485 423.557C193.459 423.636 193.433 423.715 193.407 423.794C193.38 423.874 193.354 423.953 193.328 424.033C193.301 424.113 193.275 424.193 193.248 424.273C193.222 424.353 193.195 424.433 193.168 424.513C193.142 424.593 193.115 424.674 193.088 424.755C193.062 424.835 193.035 424.916 193.008 424.997C192.981 425.078 192.954 425.159 192.927 425.241C192.9 425.322 192.873 425.403 192.846 425.485C192.819 425.567 192.792 425.649 192.765 425.731C192.738 425.813 192.711 425.895 192.683 425.977C192.656 426.06 192.629 426.142 192.601 426.225C192.574 426.307 192.546 426.39 192.519 426.473C192.491 426.556 192.464 426.639 192.436 426.723C192.409 426.806 192.381 426.89 192.353 426.973C192.325 427.057 192.298 427.141 192.27 427.225C192.242 427.309 192.214 427.393 192.186 427.477C192.158 427.561 192.13 427.646 192.102 427.731C192.074 427.815 192.046 427.9 192.018 427.985C191.99 428.07 191.961 428.155 191.933 428.241C191.905 428.326 191.877 428.411 191.848 428.497C191.82 428.583 191.791 428.669 191.763 428.755C191.734 428.841 191.706 428.927 191.677 429.013C191.649 429.099 191.62 429.186 191.591 429.272C191.562 429.359 191.534 429.446 191.505 429.533C191.476 429.62 191.447 429.707 191.418 429.794C191.389 429.882 191.36 429.969 191.331 430.057C191.302 430.144 191.273 430.232 191.244 430.32C191.215 430.408 191.186 430.496 191.156 430.585C191.127 430.673 191.098 430.761 191.068 430.85C191.039 430.939 191.01 431.028 190.98 431.117C190.951 431.206 190.921 431.295 190.891 431.384C190.862 431.473 190.832 431.563 190.802 431.652C190.773 431.742 190.743 431.832 190.713 431.922C190.683 432.012 190.654 432.102 190.624 432.192C190.594 432.283 190.564 432.373 190.534 432.464C190.504 432.554 190.474 432.645 190.443 432.736C190.413 432.827 190.383 432.918 190.353 433.009C190.323 433.101 190.292 433.192 190.262 433.284C190.231 433.375 190.201 433.467 190.171 433.559C190.14 433.651 190.11 433.743 190.079 433.836C190.048 433.928 190.018 434.02 189.987 434.113C189.956 434.206 189.926 434.298 189.895 434.391C189.864 434.484 189.833 434.577 189.802 434.671C189.771 434.764 189.74 434.858 189.709 434.951C189.678 435.045 189.647 435.139 189.616 435.233C189.585 435.326 189.554 435.421 189.522 435.515C189.491 435.609 189.46 435.704 189.429 435.798C189.397 435.893 189.366 435.988 189.334 436.083C189.303 436.178 189.271 436.273 189.24 436.368C189.208 436.463 189.177 436.559 189.145 436.654C189.113 436.75 189.081 436.846 189.05 436.942C189.018 437.038 188.986 437.134 188.954 437.23C188.922 437.326 188.89 437.423 188.858 437.519C188.826 437.616 188.794 437.713 188.762 437.81C188.73 437.907 188.698 438.004 188.665 438.101C188.633 438.198 188.601 438.296 188.569 438.393C188.536 438.491 188.504 438.589 188.471 438.687C188.439 438.785 188.406 438.883 188.374 438.981C188.341 439.079 188.309 439.178 188.276 439.276C188.243 439.375 188.211 439.474 188.178 439.573C188.145 439.672 188.112 439.771 188.079 439.87C188.046 439.969 188.013 440.069 187.98 440.168C187.947 440.268 187.914 440.368 187.881 440.468C187.848 440.567 187.815 440.668 187.782 440.768C187.748 440.868 187.715 440.969 187.682 441.069C187.649 441.17 187.615 441.27 187.582 441.371C187.548 441.472 187.515 441.573 187.481 441.675C187.448 441.776 187.414 441.877 187.38 441.979C187.347 442.081 187.313 442.182 187.279 442.284C187.245 442.386 187.212 442.488 187.178 442.591C187.144 442.693 187.11 442.795 187.076 442.898C187.042 443 187.008 443.103 186.974 443.206C186.94 443.309 186.905 443.412 186.871 443.515C186.837 443.619 186.803 443.722 186.768 443.826C186.734 443.929 186.7 444.033 186.665 444.137C186.631 444.241 186.596 444.345 186.562 444.449C186.527 444.553 186.493 444.658 186.458 444.762C186.423 444.867 186.389 444.972 186.354 445.077C186.319 445.181 186.284 445.287 186.249 445.392C186.214 445.497 186.18 445.602 186.145 445.708C186.11 445.814 186.075 445.919 186.039 446.025C186.004 446.131 185.969 446.237 185.934 446.343C185.899 446.45 185.863 446.556 185.828 446.663C185.793 446.769 185.757 446.876 185.722 446.983C185.687 447.09 185.651 447.197 185.616 447.304C185.58 447.411 185.544 447.519 185.509 447.626C185.473 447.734 185.437 447.842 185.402 447.949C185.366 448.057 185.33 448.165 185.294 448.274C185.258 448.382 185.222 448.49 185.187 448.599C185.151 448.707 185.115 448.816 185.078 448.925C185.042 449.034 185.006 449.143 184.97 449.252C184.934 449.361 184.898 449.471 184.861 449.58C184.825 449.69 184.789 449.8 184.752 449.91C184.716 450.02 184.679 450.13 184.643 450.24C184.606 450.35 184.57 450.46 184.533 450.571C184.496 450.682 184.46 450.792 184.423 450.903C184.386 451.014 184.349 451.125 184.312 451.236C184.276 451.348 184.239 451.459 184.202 451.57C184.165 451.682 184.128 451.794 184.091 451.906C184.054 452.017 184.016 452.13 183.979 452.242C183.942 452.354 183.905 452.466 183.868 452.579C183.83 452.691 183.793 452.804 183.755 452.917C183.718 453.03 183.681 453.143 183.643 453.256C183.606 453.369 183.568 453.483 183.53 453.596C183.493 453.71 183.455 453.824 183.417 453.937C183.38 454.051 183.342 454.165 183.304 454.28C183.266 454.394 183.228 454.508 183.19 454.623C183.152 454.737 183.114 454.852 183.076 454.967C183.038 455.082 183 455.197 182.962 455.312C182.924 455.427 182.885 455.543 182.847 455.658C182.809 455.774 182.771 455.889 182.732 456.005C182.694 456.121 182.655 456.237 182.617 456.353C182.578 456.469 182.54 456.586 182.501 456.702C182.462 456.819 182.424 456.936 182.385 457.052C182.346 457.169 182.308 457.286 182.269 457.404C182.23 457.521 182.191 457.638 182.152 457.756C182.113 457.873 182.074 457.991 182.035 458.109C181.996 458.227 181.957 458.345 181.918 458.463C181.878 458.581 181.839 458.699 181.8 458.818C181.761 458.936 181.721 459.055 181.682 459.174C181.643 459.293 181.603 459.412 181.564 459.531C181.524 459.65 181.485 459.77 181.445 459.889C181.405 460.009 181.366 460.128 181.326 460.248C181.286 460.368 181.247 460.488 181.207 460.608C181.167 460.728 181.127 460.849 181.087 460.969C181.047 461.09 181.007 461.21 180.967 461.331C180.927 461.452 180.887 461.573 180.847 461.694C180.807 461.816 180.766 461.937 180.726 462.058C180.686 462.18 180.646 462.302 180.605 462.423C180.565 462.545 180.524 462.667 180.484 462.789C180.443 462.912 180.403 463.034 180.362 463.156C180.322 463.279 180.281 463.402 180.24 463.524C180.2 463.647 180.159 463.77 180.118 463.893C180.077 464.017 180.036 464.14 179.995 464.264C179.954 464.387 179.913 464.511 179.872 464.635C179.831 464.758 179.79 464.882 179.749 465.007C179.708 465.131 179.667 465.255 179.625 465.38C179.584 465.504 179.543 465.629 179.502 465.754C179.46 465.878 179.419 466.003 179.377 466.129C179.336 466.254 179.294 466.379 179.253 466.505C179.211 466.63 179.169 466.756 179.128 466.882C179.086 467.007 179.044 467.133 179.002 467.259C178.961 467.386 178.919 467.512 178.877 467.638C178.835 467.765 178.793 467.892 178.751 468.018C178.709 468.145 178.667 468.272 178.625 468.399C178.583 468.527 178.54 468.654 178.498 468.781C178.456 468.909 178.414 469.037 178.371 469.164C178.329 469.292 178.286 469.42 178.244 469.548C178.202 469.676 178.159 469.805 178.116 469.933C178.074 470.062 178.031 470.19 177.989 470.319C177.946 470.448 177.903 470.577 177.86 470.706C177.817 470.835 177.775 470.965 177.732 471.094C177.689 471.224 177.646 471.353 177.603 471.483C177.56 471.613 177.517 471.743 177.474 471.873C177.43 472.003 177.387 472.133 177.344 472.264C177.301 472.394 177.258 472.525 177.214 472.656C177.171 472.787 177.127 472.918 177.084 473.049C177.04 473.18 176.997 473.311 176.953 473.443C176.91 473.574 176.866 473.706 176.823 473.838C176.779 473.969 176.735 474.101 176.691 474.233C176.648 474.366 176.604 474.498 176.56 474.63C176.516 474.763 176.472 474.896 176.428 475.028C176.384 475.161 176.34 475.294 176.296 475.427C176.252 475.56 176.207 475.694 176.163 475.827C176.119 475.961 176.075 476.094 176.03 476.228C175.986 476.362 175.942 476.496 175.897 476.63C175.853 476.764 175.808 476.898 175.764 477.033C175.719 477.167 175.674 477.302 175.63 477.437C175.585 477.571 175.54 477.706 175.496 477.842C175.451 477.977 175.406 478.112 175.361 478.247C175.316 478.383 175.271 478.518 175.226 478.654C175.181 478.79 175.136 478.926 175.091 479.062C175.046 479.198 175.001 479.335 174.956 479.471C174.91 479.607 174.865 479.744 174.82 479.881C174.774 480.018 174.729 480.155 174.684 480.292C174.638 480.429 174.593 480.566 174.547 480.704C174.502 480.841 174.456 480.979 174.41 481.116C174.365 481.254 174.319 481.392 174.273 481.53C174.227 481.668 174.182 481.807 174.136 481.945C174.09 482.083 174.044 482.222 173.998 482.361C173.952 482.5 173.906 482.639 173.86 482.778C173.814 482.917 173.768 483.056 173.721 483.196C173.675 483.335 173.629 483.475 173.583 483.614C173.536 483.754 173.49 483.894 173.443 484.034C173.397 484.174 173.351 484.315 173.304 484.455C173.257 484.595 173.211 484.736 173.164 484.877C173.118 485.018 173.071 485.158 173.024 485.3C172.977 485.441 172.931 485.582 172.884 485.723C172.837 485.865 172.79 486.006 172.743 486.148C172.696 486.29 172.649 486.432 172.602 486.574C172.555 486.716 172.508 486.858 172.46 487.001C172.413 487.143 172.366 487.286 172.319 487.429C172.271 487.571 172.224 487.714 172.176 487.857C172.129 488 172.082 488.144 172.034 488.287C171.986 488.431 171.939 488.574 171.891 488.718C171.844 488.862 171.796 489.006 171.748 489.15C171.7 489.294 171.653 489.438 171.605 489.582C171.557 489.727 171.509 489.871 171.461 490.016C171.413 490.161 171.365 490.306 171.317 490.451C171.269 490.596 171.221 490.741 171.173 490.887C171.124 491.032 171.076 491.178 171.028 491.323C170.98 491.469 170.931 491.615 170.883 491.761C170.834 491.907 170.786 492.053 170.737 492.2C170.689 492.346 170.64 492.493 170.592 492.64C170.543 492.786 170.494 492.933 170.446 493.08C170.397 493.227 170.348 493.375 170.299 493.522C170.25 493.669 170.201 493.817 170.152 493.965C170.104 494.113 170.054 494.26 170.005 494.409C169.956 494.557 169.907 494.705 169.858 494.853C169.809 495.002 169.76 495.15 169.71 495.299C169.661 495.448 169.612 495.597 169.562 495.746C169.513 495.895 169.463 496.044 169.414 496.193C169.364 496.343 169.315 496.492 169.265 496.642C169.216 496.792 169.166 496.942 169.116 497.092C169.066 497.242 169.017 497.392 168.967 497.542C168.917 497.693 168.867 497.843 168.817 497.994C168.767 498.145 168.717 498.296 168.667 498.447C168.617 498.598 168.567 498.749 168.517 498.9C168.467 499.052 168.416 499.203 168.366 499.355C168.316 499.507 168.266 499.659 168.215 499.811C168.165 499.963 168.114 500.115 168.064 500.267C168.013 500.42 167.963 500.572 167.912 500.725C167.861 500.878 167.811 501.031 167.76 501.184C167.709 501.337 167.659 501.49 167.608 501.643C167.557 501.797 167.506 501.95 167.455 502.104C167.404 502.258 167.353 502.412 167.302 502.566C167.251 502.72 167.2 502.874 167.149 503.028C167.098 503.183 167.046 503.337 166.995 503.492C166.944 503.647 166.893 503.802 166.841 503.957C166.79 504.112 166.738 504.267 166.687 504.422C166.635 504.578 166.584 504.733 166.532 504.889C166.481 505.045 166.429 505.201 166.377 505.357C166.326 505.513 166.274 505.669 166.222 505.825C166.17 505.982 166.118 506.138 166.066 506.295C166.014 506.452 165.962 506.608 165.91 506.765C165.858 506.922 165.806 507.08 165.754 507.237C165.702 507.394 165.65 507.552 165.597 507.71C165.545 507.867 165.493 508.025 165.441 508.183C165.388 508.341 165.336 508.499 165.283 508.658C165.231 508.816 165.178 508.975 165.126 509.133C165.073 509.292 165.02 509.451 164.968 509.61C164.915 509.769 164.862 509.928 164.809 510.088C164.757 510.247 164.704 510.406 164.651 510.566C164.598 510.726 164.545 510.886 164.492 511.046C164.439 511.206 164.386 511.366 164.333 511.526C164.28 511.687 164.226 511.847 164.173 512.008C164.12 512.169 164.067 512.329 164.013 512.49C163.96 512.651 163.906 512.813 163.853 512.974C163.799 513.135 163.746 513.297 163.692 513.459C163.639 513.62 163.585 513.782 163.531 513.944C163.478 514.106 163.424 514.268 163.37 514.431C163.316 514.593 163.263 514.756 163.209 514.918C163.155 515.081 163.101 515.244 163.047 515.407C162.993 515.57 162.939 515.733 162.884 515.896C162.83 516.06 162.776 516.223 162.722 516.387C162.668 516.55 162.613 516.714 162.559 516.878C162.505 517.042 162.45 517.207 162.396 517.371C162.341 517.535 162.287 517.7 162.232 517.864C162.178 518.029 162.123 518.194 162.068 518.359C162.014 518.524 161.959 518.689 161.904 518.854C161.849 519.02 161.795 519.185 161.74 519.351C161.685 519.517 161.63 519.682 161.575 519.848C161.52 520.014 161.465 520.181 161.41 520.347C161.354 520.513 161.299 520.68 161.244 520.846C161.189 521.013 161.134 521.18 161.078 521.347C161.023 521.514 160.967 521.681 160.912 521.848C160.857 522.016 160.801 522.183 160.745 522.351C160.69 522.519 160.634 522.686 160.579 522.854C160.523 523.022 160.467 523.19 160.411 523.359C160.356 523.527 160.3 523.696 160.244 523.864C160.188 524.033 160.132 524.202 160.076 524.371C160.02 524.54 159.964 524.709 159.908 524.878C159.852 525.048 159.796 525.217 159.739 525.387C159.683 525.556 159.627 525.726 159.571 525.896L195.641 537.85Z" fill="#EE6352"/>
</svg>
